[img]http://www.ebeart.co.uk/images/dwacov01.jpg[/img]


[size=4][color=red][b]Date with an Angel (1987)[/b][/color][/size]



[b]Info[/b]


Format                                   : MPEG-4
File size                                  : 763 MiB
Duration                                 : 1h 42mn
Country                                  : USA
Language                               : English
Release Date                         : 20 November 1987 (USA)
Genres                                   : Comedy | Fantasy | Romance 
Subtitle                                   : [size=2][color=red][b]Ro[/b][/color][/size]
IMDb                                      : [url]http://www.imdb.com/title/tt0092834/[/url]


[b]Cast[/b]



[b]Director[/b]                                : Tom McLoughlin
[b]Writer[/b]                                   : Tom McLoughlin
[b]Stars[/b]                                    : Phoebe Cates, Emmanuelle Béart and Michael E. Knight



[b]Sinopsis[/b]


[b]Un inger undeva in cosmos se loveste de un satelit artificial si ranita cade in piscina unui tinar.[/b]

[i]Jim is soon to be married to Patty, but when he wakes up after a bachelor party thrown by his friends, he finds an injured angel in his pool. When Patty sees her, she thinks he's seeing someone else and gets upset and tells her father. Now he has to figure out how to; cure the angel, tell Patty what happened, keep his friends from taking the angel to the papers, and keep Patty's father from killing him. It's no wonder he has a headache.[/i] 



[b]Video[/b]

ID                                       : 1
Format                                   : AVC
Format/Info                              : Advanced Video Codec
Format profile                           : High@L5.1
Format settings, CABAC                   : Yes
Format settings, ReFrames                : 3 frames
Codec ID                                 : avc1
Codec ID/Info                            : Advanced Video Coding
Duration                                 : 1h 42mn
Bit rate                                 : 916 Kbps
Maximum bit rate                         : 4 221 Kbps
Width                                    : 688 pixels
Height                                   : 288 pixels
Display aspect ratio                     : 2.40:1
Frame rate mode                          : Constant
Frame rate                               : 23.976 fps
Color space                              : YUV
Chroma subsampling                       : 4:2:0
Bit depth                                : 8 bits
Scan type                                : Progressive
Bits/(Pixel*Frame)                       : 0.193
Stream size                              : 668 MiB (88%)
Writing library                          : x264 core 58 svn-736bm
Encoded date                             : UTC 2012-09-14 08:09:41
Tagged date                              : UTC 2012-09-14 08:11:23

[b]Audio[/b]

ID                                       : 2
Format                                   : AAC
Format/Info                              : Advanced Audio Codec
Format profile                           : LC
Codec ID                                 : 40
Duration                                 : 1h 42mn
Bit rate mode                            : Variable
Bit rate                                 : 125 Kbps
Maximum bit rate                         : 150 Kbps
Channel(s)                               : 2 channels
Channel positions                        : Front: L R
Sampling rate                            : 48.0 KHz
Compression mode                         : Lossy
Stream size                              : 91.5 MiB (12%)






